<svg width="800" height="800" viewBox="0 0 800 800" fill="none" xmlns="http://www.w3.org/2000/svg">
<g clip-path="url(#clip0_104_2)">
<path d="M587.196 255.131C587.196 251.952 585.891 179.611 477.704 155.816V125.208C495.528 123.43 509.492 108.351 509.492 90.0662V35.3201C509.492 15.8446 493.648 0 474.172 0H327.594C308.118 0 292.274 15.8446 292.274 35.3201V90.0662C292.274 107.737 305.332 122.375 322.296 124.945V155.506C218.299 177.196 212.804 241.87 212.804 255.131V304.848C212.804 320.212 219.347 334.388 229.775 344.786C219.347 354.619 212.804 368.026 212.804 382.555V454.183C212.804 468.184 218.803 481.148 228.466 490.91C218.803 500.632 212.804 513.538 212.804 527.477V599.106C212.804 613.499 219.172 626.79 229.351 636.627C219.172 646.442 212.804 659.705 212.804 674.066V745.695C212.804 775.133 239.41 800.002 270.905 800.002H532.274C563.071 800.002 587.196 776.147 587.196 745.695V674.066C587.196 659.686 581.358 646.607 571.866 636.894C581.4 627.186 587.196 613.934 587.196 599.106V527.477C587.196 513.243 581.86 500.454 572.994 490.879C581.86 481.268 587.196 468.449 587.196 454.183V382.555C587.196 367.606 581.247 354.262 571.483 344.565C581.199 334.269 587.196 320.267 587.196 304.848V255.131ZM327.594 35.3201H474.172L474.176 90.0662H327.594V35.3201ZM551.876 745.694C551.876 756.694 543.633 764.68 532.274 764.68H270.905C258.769 764.68 248.124 755.809 248.124 745.694V674.064C248.124 664.009 258.769 655.188 270.905 655.188H451.214C460.966 655.188 468.874 647.279 468.874 637.528C468.874 637.229 468.844 636.94 468.83 636.645C468.844 636.35 468.874 636.06 468.874 635.762C468.874 626.01 460.966 618.102 451.214 618.102H270.905C258.769 618.102 248.124 609.226 248.124 599.105V527.476C248.124 517.425 258.769 508.608 270.905 508.608H440.618H444.15C453.902 508.608 461.81 500.699 461.81 490.947C461.81 481.196 453.902 473.287 444.15 473.287H440.618H270.905C258.981 473.287 248.124 464.18 248.124 454.181V382.554C248.124 372.562 258.769 363.795 270.905 363.795H435.32C445.072 363.795 452.98 355.887 452.98 346.135C452.98 345.837 452.95 345.547 452.936 345.252C452.95 344.957 452.98 344.668 452.98 344.369C452.98 334.617 445.072 326.709 435.32 326.709H270.905C258.981 326.709 248.124 316.29 248.124 304.846V255.129C248.124 246.315 252.68 201.639 342.633 187.696C352.028 186.241 358.517 177.626 357.455 168.267C357.551 167.523 357.616 166.773 357.616 166.003V125.386H442.384V169.536C442.384 176.664 446.615 182.79 452.696 185.579C454.653 186.857 456.89 187.769 459.34 188.193C550.64 203.959 551.875 254.621 551.876 255.129V304.846C551.876 316.901 542.688 326.709 531.391 326.709C521.639 326.709 513.731 334.617 513.731 344.369C513.731 345.174 513.803 345.96 513.907 346.737C514.227 356.21 521.987 363.795 531.537 363.795C543.131 363.795 551.876 371.859 551.876 382.554V454.181C551.876 464.895 542.976 473.287 531.611 473.287C521.86 473.287 513.951 481.196 513.951 490.947C513.951 500.699 521.86 508.608 531.611 508.608C531.661 508.608 531.71 508.604 531.762 508.604C531.786 508.604 531.809 508.608 531.832 508.608C543.26 508.608 551.876 516.719 551.876 527.476V599.105C551.876 609.757 542.976 618.102 531.611 618.102C523.255 618.102 516.27 623.913 514.437 631.71C513.8 633.535 513.436 635.486 513.436 637.528C513.436 647.279 521.344 655.188 531.096 655.188C542.748 655.188 551.876 663.479 551.876 674.064V745.694Z" fill="white"/>
</g>
<defs>
<clipPath id="clip0_104_2">
<rect width="800" height="800" fill="white"/>
</clipPath>
</defs>
</svg>
